# xmcd
#
# Track frame offsets:
#	150
#	15282
#	27770
#	47007
#	61465
#	71407
#	83935
#	97635
#	107215
#	123070
#	140275
#	152180
#	167167
#	180157
#	195060
#	207305
#	223295
#	229430
#
# Disc length: 3190 seconds
#
# Revision: 0
# Processed by: cddbd v1.5.1PL2 Copyright (c) Steve Scherf et al.
# Submitted via: dBpowerAMP V4.0
#
DISCID=e50c7412
DTITLE=La fete - pb571a
DYEAR=1900
DGENRE=
TTITLE0=Agadou
TTITLE1=Sans chemise sans pantalon
TTITLE2=La queue leu leu
TTITLE3=On va la faire la java
TTITLE4=Gaston
TTITLE5=Joie bouteille
TTITLE6=Sirop typhon
TTITLE7=Pierre perret - Le zizi
TTITLE8=Chef on a soif
TTITLE9=La chenille
TTITLE10=Becassine
TTITLE11=A bruant - A la bastille (Nini peau d chien)
TTITLE12=La danse des canards
TTITLE13=Serge Gainsbourg - L ami caouete
TTITLE14=Du rhum des femmes
TTITLE15=La fete au village
TTITLE16=joyeux aniversaire
TTITLE17=Ce n'est qu'un au revoir
EXTD=
EXTT0=
EXTT1=
EXTT2=
EXTT3=
EXTT4=
EXTT5=
EXTT6=
EXTT7=
EXTT8=
EXTT9=
EXTT10=
EXTT11=
EXTT12=
EXTT13=
EXTT14=
EXTT15=
EXTT16=
EXTT17=
PLAYORDER=
